<?xml version="1.0" encoding="UTF-8" standalone="no"?>
<!-- Created with Inkscape (http://www.inkscape.org/) -->

<svg
   width="32"
   height="32"
   viewBox="0 0 8.4666666 8.4666669"
   version="1.1"
   id="svg5"
   sodipodi:docname="ico.svg"
   inkscape:version="1.1 (c68e22c387, 2021-05-23)"
   inkscape:export-filename="C:\Users\Windows 10\Desktop\logo.png"
   inkscape:export-xdpi="96"
   inkscape:export-ydpi="96"
   xmlns:inkscape="http://www.inkscape.org/namespaces/inkscape"
   xmlns:sodipodi="http://sodipodi.sourceforge.net/DTD/sodipodi-0.dtd"
   xmlns="http://www.w3.org/2000/svg"
   xmlns:svg="http://www.w3.org/2000/svg">
  <sodipodi:namedview
     id="namedview7"
     pagecolor="#ffffff"
     bordercolor="#666666"
     borderopacity="1.0"
     inkscape:pageshadow="2"
     inkscape:pageopacity="0.0"
     inkscape:pagecheckerboard="0"
     inkscape:document-units="mm"
     showgrid="false"
     inkscape:zoom="5.7247873"
     inkscape:cx="-4.2796349"
     inkscape:cy="4.104956"
     inkscape:window-width="1366"
     inkscape:window-height="705"
     inkscape:window-x="-8"
     inkscape:window-y="-8"
     inkscape:window-maximized="1"
     inkscape:current-layer="layer1"
     units="px" />
  <defs
     id="defs2" />
  <g
     inkscape:label="Camada 1"
     inkscape:groupmode="layer"
     id="layer1">
    <rect
       style="fill:#d52319;fill-opacity:1;stroke-width:0.233116;stroke-linecap:round;stroke-linejoin:round;paint-order:stroke markers fill"
       id="rect858"
       width="8.4666662"
       height="8.4666662"
       x="-5.0862632e-06"
       y="-5.0862632e-06" />
    <g
       id="g937"
       transform="matrix(0.13529619,0,0,0.13529619,-0.65897877,-0.25341513)">
      <path
         id="path9612"
         style="fill:#000000;stroke:none;stroke-width:0.0915284px;stroke-linecap:butt;stroke-linejoin:miter;stroke-opacity:1"
         d="m 18.279973,20.84466 c -7.009646,0.05166 -9.4733423,6.618954 -9.4967931,12.150939 -0.029923,5.211988 0.9598396,11.600326 7.9300841,11.575486 7.334132,-0.04037 8.341912,-5.926157 8.249717,-11.255674 0.07827,-7.541841 -1.505634,-12.527599 -6.683008,-12.470751 z m 42.481171,0.785855 c -0.03576,-3.1e-5 -0.07288,0.001 -0.111375,0.0031 l -4.158104,0.138367 0.447628,17.011425 c 0.03307,0.917531 0.205686,1.251329 0.735445,1.279074 h 3.293416 c 0.47107,-0.0211 0.517028,-0.264052 0.511629,-0.735446 L 61.70378,23.019071 c -0.01401,-0.376263 0.165952,-1.387491 -0.942636,-1.38848 z m -32.858171,1.194342 c -0.33189,7.411999 -0.976455,14.868602 -0.768694,22.203514 5.019549,0.910398 12.038442,1.029199 12.978435,-6.602206 0.106742,-2.746703 0.427446,-7.195488 -6.647419,-6.429157 l 0.587783,-9.126924 z m -10.884021,4.318104 c 0.02048,-1.83e-4 0.04122,1.83e-4 0.06203,0.001 1.416068,-0.04249 1.348158,3.046336 1.294985,5.755745 -0.04621,2.552736 -0.02944,5.047981 -1.53489,5.084116 -1.346612,-0.01028 -1.721618,-2.489684 -1.726704,-5.180116 -0.0381,-3.623087 0.613677,-5.651186 1.904576,-5.660817 z m 29.998441,1.604786 c -0.896428,0.0017 -1.901515,0.0531 -3.028482,0.154992 -0.607547,0.03984 -1.007292,0.400865 -1.055257,0.743313 l -0.319817,4.084993 c -0.03907,0.597432 0.295028,0.615897 0.687537,0.543629 1.140389,-0.159829 4.264845,-0.668826 4.390505,0.498041 0.0429,2.070515 -7.149472,0.319598 -7.126884,6.954552 0.220382,4.341017 4.80609,4.011299 7.19017,2.351497 l 0.316416,1.401888 5.923965,-0.520032 c 0.332284,-2.118319 0.539199,-5.86045 0.436906,-9.070076 -0.187728,-4.719008 -1.140044,-7.153853 -7.415059,-7.142797 z m -13.667224,7.082551 c 1.256118,-0.0018 1.762524,0.550271 1.79732,1.450154 -0.0462,2.144491 -1.593279,2.897275 -2.57406,3.005781 v -4.396761 c 0.285797,-0.03955 0.544127,-0.05888 0.77674,-0.05917 z m 14.603783,2.569235 0.239726,2.27033 c -0.66707,0.162646 -2.684851,0.35971 -2.883324,-0.36772 -0.149138,-0.606434 1.361341,-1.586361 2.643598,-1.90261 z m 10.040423,3.437499 c -0.544947,0.01368 -0.917469,0.374792 -0.911174,0.815354 v 1.646797 c -0.0093,0.404279 0.17707,0.778691 0.575448,0.787824 h 2.227434 c 0.481303,0.0062 1.216155,-0.161373 1.22598,-0.707917 v -2.542058 z" />
      <path
         id="path1478"
         style="fill:#ffffff;stroke:none;stroke-width:0.0915284px;stroke-linecap:butt;stroke-linejoin:miter;stroke-opacity:1"
         d="m 20.110543,20.84466 c -7.009646,0.05166 -9.473342,6.618954 -9.496793,12.150935 -0.02992,5.211989 0.95984,11.60033 7.930084,11.57549 7.334133,-0.04037 8.341912,-5.926157 8.249717,-11.255677 0.07827,-7.541838 -1.505634,-12.527596 -6.683008,-12.470748 z m 42.481177,0.785855 c -0.03576,-3.1e-5 -0.07288,0.001 -0.11137,0.0031 l -4.15811,0.138363 0.447634,17.011424 c 0.03307,0.917533 0.205686,1.251329 0.735445,1.279071 h 3.293416 c 0.47107,-0.0211 0.517025,-0.264047 0.511629,-0.735443 l 0.223994,-16.307976 c -0.01401,-0.376259 0.165955,-1.387487 -0.942638,-1.38848 z m -32.858177,1.194342 c -0.33189,7.411999 -0.976454,14.868602 -0.768694,22.203514 5.019548,0.910398 12.038453,1.029199 12.978446,-6.602206 0.106742,-2.746708 0.427443,-7.195488 -6.64743,-6.429157 l 0.587784,-9.126924 z m -10.884021,4.318104 c 0.02048,-1.83e-4 0.04122,1.83e-4 0.06203,0.001 1.416069,-0.04249 1.348158,3.046336 1.294985,5.755745 -0.04621,2.552736 -0.02944,5.047983 -1.53489,5.084121 -1.346612,-0.01028 -1.721618,-2.489687 -1.726703,-5.180118 -0.0381,-3.623087 0.613676,-5.651189 1.904575,-5.66082 z m 29.998452,1.604786 c -0.896434,0.0017 -1.901515,0.0531 -3.028485,0.154989 -0.607546,0.03984 -1.007292,0.400865 -1.055259,0.743312 l -0.319812,4.084993 c -0.03908,0.597431 0.295028,0.615898 0.687537,0.543628 1.140389,-0.159826 4.264842,-0.668821 4.390505,0.498046 0.0429,2.070515 -7.149478,0.319598 -7.126884,6.954552 0.220377,4.341017 4.806087,4.011299 7.190165,2.351497 l 0.316418,1.401883 5.923965,-0.520027 c 0.332287,-2.118319 0.539197,-5.860453 0.436904,-9.070076 -0.187725,-4.719008 -1.140039,-7.153853 -7.415054,-7.142797 z M 35.18074,35.830296 c 1.256118,-0.0018 1.762524,0.550273 1.797317,1.450156 -0.0462,2.144491 -1.593276,2.897273 -2.574057,3.005779 v -4.396759 c 0.285797,-0.03955 0.544121,-0.05888 0.77674,-0.05918 z m 14.60379,2.569232 0.239724,2.270335 c -0.667067,0.162646 -2.684852,0.35971 -2.883324,-0.367723 -0.149135,-0.606433 1.361344,-1.586361 2.6436,-1.902612 z m 10.040421,3.437502 c -0.544947,0.01365 -0.917469,0.374794 -0.911174,0.815356 v 1.646797 c -0.0093,0.404279 0.177075,0.778691 0.575453,0.787824 h 2.227429 c 0.481306,0.0062 1.216157,-0.161376 1.22598,-0.707917 v -2.54206 z" />
    </g>
  </g>
</svg>
