<?xml version="1.0" encoding="UTF-8" standalone="no"?>
<!-- Created with Inkscape (http://www.inkscape.org/) -->

<svg
   width="75"
   height="60"
   viewBox="0 0 19.84375 15.875"
   version="1.1"
   id="svg5"
   sodipodi:docname="logo.svg"
   inkscape:version="1.1 (c68e22c387, 2021-05-23)"
   inkscape:export-filename="C:\Users\Windows 10\Desktop\logo.png"
   inkscape:export-xdpi="96"
   inkscape:export-ydpi="96"
   xmlns:inkscape="http://www.inkscape.org/namespaces/inkscape"
   xmlns:sodipodi="http://sodipodi.sourceforge.net/DTD/sodipodi-0.dtd"
   xmlns="http://www.w3.org/2000/svg"
   xmlns:svg="http://www.w3.org/2000/svg">
  <sodipodi:namedview
     id="namedview7"
     pagecolor="#ffffff"
     bordercolor="#666666"
     borderopacity="1.0"
     inkscape:pageshadow="2"
     inkscape:pageopacity="0.0"
     inkscape:pagecheckerboard="0"
     inkscape:document-units="mm"
     showgrid="false"
     inkscape:zoom="0.35779921"
     inkscape:cx="346.56309"
     inkscape:cy="375.90916"
     inkscape:window-width="1366"
     inkscape:window-height="705"
     inkscape:window-x="-8"
     inkscape:window-y="-8"
     inkscape:window-maximized="1"
     inkscape:current-layer="layer1"
     units="px"
     showguides="true"
     inkscape:guide-bbox="true" />
  <defs
     id="defs2" />
  <g
     inkscape:label="Camada 1"
     inkscape:groupmode="layer"
     id="layer1">
    <g
       id="g928"
       transform="translate(-3.6842254,-32.29536)">
      <g
         id="g8629"
         transform="matrix(0.11701209,0,0,0.11701209,30.691286,16.624792)">
        <g
           id="g7481">
          <path
             id="path9612"
             style="fill:#000000;stroke:none;stroke-width:0.264583px;stroke-linecap:butt;stroke-linejoin:miter;stroke-opacity:1"
             d="m -197.69837,140.3732 c -20.26294,0.14935 -27.3848,19.13356 -27.45259,35.12499 -0.0865,15.06641 2.77463,33.53332 22.92367,33.46152 21.20094,-0.11671 24.11415,-17.13088 23.84764,-32.53703 0.22625,-21.80137 -4.35237,-36.21381 -19.31872,-36.04948 z m 122.801264,2.27169 c -0.10338,-9e-5 -0.21068,0.003 -0.32195,0.009 l -12.01993,0.39998 1.29397,49.1753 c 0.0956,2.65233 0.59458,3.61725 2.12597,3.69745 h 9.52035 c 1.36173,-0.061 1.49458,-0.7633 1.47898,-2.12597 l 0.64751,-47.14183 c -0.0405,-1.08767 0.47972,-4.01085 -2.7249,-4.01371 z m -94.983844,3.45251 c -0.9594,21.42603 -2.82266,42.981 -2.22208,64.18419 14.51012,2.63171 34.79979,2.97513 37.51705,-19.08514 0.30856,-7.93996 1.23563,-20.80016 -19.21584,-18.58491 l 1.69912,-26.3834 z m -31.46268,12.48244 c 0.0592,-5.3e-4 0.11916,5.3e-4 0.17932,0.003 4.09346,-0.12284 3.89715,8.80611 3.74344,16.63826 -0.13357,7.37925 -0.0851,14.59231 -4.43694,14.69677 -3.89268,-0.0297 -4.97672,-7.19699 -4.99142,-14.97428 -0.11013,-10.47334 1.77397,-16.33601 5.5056,-16.36385 z m 86.71716,4.63899 c -2.59133,0.005 -5.49675,0.15351 -8.7545,0.44804 -1.75625,0.11516 -2.9118,1.15879 -3.05046,2.14871 l -0.9245,11.80858 c -0.11295,1.72701 0.85285,1.78039 1.98748,1.57148 3.29655,-0.46202 12.32848,-1.93339 12.69173,1.4397 0.12401,5.98528 -20.66714,0.92387 -20.60184,20.10368 0.63706,12.54867 13.89307,11.59555 20.78478,6.79752 l 0.91467,4.05247 17.124544,-1.50327 c 0.96054,-6.12347 1.55867,-16.94093 1.26297,-26.21907 -0.54267,-13.64134 -3.29555,-20.6798 -21.434874,-20.64784 z m -39.50815,20.47369 c 3.63109,-0.005 5.09497,1.59068 5.19555,4.19199 -0.13355,6.19913 -4.60572,8.37522 -7.44089,8.68888 v -12.70982 c 0.82616,-0.11432 1.57292,-0.17021 2.24534,-0.17105 z m 42.21548,7.42694 0.69298,6.5629 c -1.92831,0.47016 -7.76116,1.03982 -8.33489,-1.06298 -0.43111,-1.75303 3.93526,-4.58573 7.64191,-5.49992 z m 29.024074,9.93686 c -1.57529,0.0395 -2.65215,1.08342 -2.63395,2.35696 v 4.76043 c -0.0268,1.16866 0.51186,2.25098 1.66346,2.27738 h 6.43889 c 1.39132,0.018 3.51557,-0.46648 3.54397,-2.04639 v -7.34838 z" />
          <path
             id="path1478"
             style="fill:#ffffff;stroke:none;stroke-width:0.264583px;stroke-linecap:butt;stroke-linejoin:miter;stroke-opacity:1"
             d="m -192.4067,140.3732 c -20.26294,0.14935 -27.3848,19.13356 -27.45259,35.12498 -0.0865,15.06641 2.77463,33.53333 22.92367,33.46153 21.20094,-0.11671 24.11415,-17.13088 23.84764,-32.53704 0.22625,-21.80136 -4.35237,-36.2138 -19.31872,-36.04947 z m 122.801284,2.27169 c -0.10337,-9e-5 -0.21067,0.003 -0.32194,0.009 l -12.01994,0.39997 1.29398,49.1753 c 0.0956,2.65233 0.59458,3.61724 2.12597,3.69744 h 9.52035 c 1.36173,-0.061 1.49458,-0.76329 1.47898,-2.12596 l 0.6475,-47.14183 c -0.0405,-1.08766 0.47973,-4.01084 -2.7249,-4.01371 z m -94.983864,3.45251 c -0.9594,21.42603 -2.82266,42.981 -2.22208,64.18419 14.51012,2.63171 34.79982,2.97513 37.51708,-19.08514 0.30856,-7.93997 1.23562,-20.80016 -19.21587,-18.58491 l 1.69912,-26.3834 z m -31.46268,12.48244 c 0.0592,-5.3e-4 0.11916,5.3e-4 0.17932,0.003 4.09346,-0.12284 3.89715,8.80611 3.74344,16.63826 -0.13357,7.37925 -0.0851,14.59232 -4.43694,14.69678 -3.89268,-0.0297 -4.97672,-7.19699 -4.99142,-14.97428 -0.11013,-10.47334 1.77397,-16.33602 5.5056,-16.36386 z m 86.71719,4.63899 c -2.59134,0.005 -5.49675,0.1535 -8.75451,0.44803 -1.75625,0.11516 -2.9118,1.15879 -3.05046,2.14871 l -0.92449,11.80858 c -0.11296,1.72701 0.85285,1.78039 1.98748,1.57148 3.29655,-0.46202 12.32848,-1.93338 12.69173,1.43971 0.12401,5.98528 -20.66715,0.92387 -20.60184,20.10368 0.63705,12.54867 13.89306,11.59555 20.78477,6.79752 l 0.91468,4.05246 17.124534,-1.50326 c 0.96055,-6.12347 1.55867,-16.94094 1.26297,-26.21907 -0.54266,-13.64134 -3.29554,-20.6798 -21.434864,-20.64784 z m -39.50818,20.47368 c 3.63109,-0.005 5.09497,1.59069 5.19555,4.192 -0.13356,6.19913 -4.60572,8.37521 -7.44089,8.68887 v -12.70981 c 0.82616,-0.11432 1.57291,-0.17021 2.24534,-0.17106 z m 42.2155,7.42694 0.69298,6.56291 c -1.92831,0.47016 -7.76116,1.03982 -8.33489,-1.06299 -0.43111,-1.75303 3.93527,-4.58573 7.64191,-5.49992 z m 29.024074,9.93686 c -1.57529,0.0395 -2.65215,1.08343 -2.63395,2.35697 v 4.76043 c -0.0268,1.16866 0.51187,2.25098 1.66347,2.27738 h 6.43888 c 1.39132,0.018 3.51557,-0.46649 3.54397,-2.04639 v -7.34839 z" />
          <path
             id="path858"
             style="fill:#ffffff;stroke:none;stroke-width:0.264583px;stroke-linecap:butt;stroke-linejoin:miter;stroke-opacity:1"
             d="m -93.548959,229.13722 -14.673521,23.69364 h 2.09134 l 2.3518,-3.88916 h 13.107724 l 0.946195,3.88916 h 1.76475 z m 19.116145,0.007 c -4.56229,0.008 -7.358343,3.60838 -7.371643,6.23941 -0.08711,5.51089 9.602128,6.93189 9.798367,11.25409 -0.0094,2.9134 -3.155323,4.49614 -6.239412,4.57541 -2.43945,0.12089 -4.864018,-1.576 -5.708179,-3.53568 l -1.640726,1.03973 c 1.42625,2.91582 4.23196,4.54261 7.279658,4.55269 6.03518,-0.0236 8.18138,-4.59184 8.18038,-6.58616 0.256101,-5.65018 -9.687759,-6.74904 -9.751859,-11.27683 -0.0141,-1.14531 1.273736,-4.30865 5.199165,-4.41368 2.74759,0.0388 3.709694,1.59849 4.852935,3.00395 l 1.271238,-0.97048 c -1.367279,-2.47835 -3.806134,-3.90156 -5.869924,-3.88245 z m -61.045366,0.48317 -4.50154,23.17845 h 1.87896 l 1.80661,-9.21858 4.96817,0.0233 4.80642,9.33587 h 2.24173 l -5.08393,-9.52087 c 3.54379,-0.95502 6.17611,-2.94119 6.4239,-7.62589 -0.006,-3.29664 -2.22247,-6.02534 -5.97121,-6.17224 z m 17.1452,0.0357 -0.30282,1.92184 h 6.39082 l -4.04988,21.11501 h 2.09186 l 4.1398,-21.11501 h 6.49986 l 0.30283,-1.92184 z m -51.6232,0.0625 -4.5589,23.18671 1.94045,-0.0124 2.09187,-10.66754 h 8.88007 l 0.2434,-1.90945 h -8.74934 l 1.69344,-8.63668 h 10.49135 l 0.45165,-1.96061 z m 16.79536,0 -4.5589,23.18671 1.93993,-0.0124 0.0393,-0.19997 h 10.59935 l 0.37155,-1.76475 h -10.62467 l 1.70636,-8.70282 h 8.88007 l 0.24392,-1.90945 h -8.74986 l 1.69344,-8.63668 h 10.49135 l 0.45217,-1.96061 z m 20.81216,1.69654 c 4.96609,0.0149 7.30375,1.30617 7.45898,4.8395 -0.0757,4.80809 -3.91581,5.88225 -11.11147,5.58829 l 2.02623,-10.39213 c 0.57049,-0.0247 1.11253,-0.0372 1.62626,-0.0357 z m 37.917066,2.06137 3.283003,13.49737 h -11.445299 z" />
          <path
             style="color:#000000;fill:#ffffff;stroke:none;stroke-width:0.328765;stroke-linecap:round;stroke-linejoin:round;-inkscape-stroke:none;paint-order:stroke markers fill"
             d="m -202.7702,221.01188 c -0.54582,0.007 -0.9597,0.31597 -1.41587,0.68421 -0.45616,0.36823 -0.93136,0.83833 -1.39948,1.31361 -0.46812,0.47528 -0.92856,0.95539 -1.32985,1.32979 -0.40129,0.37439 -0.77778,0.63465 -0.89168,0.67325 -0.11389,0.0386 -0.57157,0.0615 -1.11781,0.008 -0.54623,-0.0532 -1.20368,-0.15457 -1.86431,-0.24724 -0.66064,-0.0927 -1.32338,-0.17767 -1.90944,-0.19263 -0.58605,-0.015 -1.10255,-0.008 -1.54007,0.31816 -0.43752,0.32641 -0.59084,0.81984 -0.74344,1.38587 -0.15261,0.56604 -0.26022,1.22551 -0.35957,1.88517 -0.0993,0.65967 -0.18963,1.31847 -0.29422,1.85723 -0.10458,0.53877 -0.25619,0.97046 -0.32564,1.06864 -0.0694,0.0982 -0.42636,0.38559 -0.89956,0.66359 -0.4732,0.27801 -1.06465,0.58245 -1.65359,0.89578 -0.58894,0.31333 -1.1751,0.63464 -1.65803,0.96701 -0.48292,0.33237 -0.89675,0.64127 -1.05885,1.16251 -0.1621,0.52123 0.004,1.0101 0.21331,1.55773 0.20925,0.54763 0.50957,1.14467 0.81693,1.73675 0.30736,0.59207 0.62171,1.17838 0.85378,1.67572 0.23207,0.49735 0.36314,0.936 0.36466,1.05625 0.002,0.12025 -0.11811,0.56205 -0.33753,1.06511 -0.21942,0.50305 -0.51897,1.09719 -0.81126,1.69685 -0.29229,0.59966 -0.57812,1.20414 -0.77345,1.75688 -0.19534,0.55275 -0.34875,1.04555 -0.17352,1.56252 0.17523,0.51698 0.59708,0.81515 1.08826,1.1352 0.49117,0.32004 1.08503,0.62627 1.6817,0.92461 0.59668,0.29834 1.19578,0.58763 1.67586,0.85358 0.48008,0.26595 0.84353,0.54404 0.91544,0.64043 0.0719,0.0964 0.23523,0.52445 0.3534,1.0604 0.11818,0.53594 0.22505,1.19244 0.34105,1.84938 0.11601,0.65692 0.24013,1.31352 0.40699,1.87551 0.16687,0.562 0.33247,1.05169 0.77811,1.36691 0.44563,0.31525 0.96247,0.30822 1.54796,0.27846 0.58549,-0.0297 1.24596,-0.13129 1.90405,-0.24054 0.65808,-0.10937 1.31241,-0.22698 1.85712,-0.29403 0.54472,-0.067 1.00262,-0.0562 1.11745,-0.0205 0.11483,0.0357 0.49856,0.28648 0.90919,0.65063 0.41063,0.36412 0.88305,0.83225 1.36304,1.29552 0.47999,0.46331 0.96588,0.92178 1.43121,1.27837 0.46533,0.35658 0.88697,0.65497 1.43279,0.64806 0.54582,-0.007 0.96034,-0.31602 1.41651,-0.68425 0.45616,-0.36823 0.93072,-0.83826 1.39884,-1.31356 0.46812,-0.47527 0.92851,-0.95603 1.3298,-1.33043 0.40129,-0.3744 0.77783,-0.63401 0.89173,-0.67262 0.11388,-0.0387 0.57156,-0.0616 1.1178,-0.008 0.54624,0.0532 1.20369,0.15457 1.86432,0.24726 0.66064,0.0927 1.32333,0.17701 1.90939,0.192 0.58605,0.0149 1.1026,0.009 1.54012,-0.31752 0.43752,-0.32641 0.59084,-0.81987 0.74344,-1.3859 0.15261,-0.56603 0.26022,-1.22548 0.35957,-1.88517 0.0994,-0.65965 0.18958,-1.3191 0.29417,-1.85786 0.10458,-0.53877 0.25683,-0.97051 0.32628,-1.06869 0.0694,-0.0982 0.42577,-0.38489 0.89897,-0.6629 0.4732,-0.278 1.0646,-0.58308 1.65353,-0.89641 0.58894,-0.31333 1.17517,-0.63401 1.65809,-0.96637 0.48292,-0.33237 0.89739,-0.64132 1.05949,-1.16256 0.1621,-0.52124 -0.004,-1.0101 -0.21331,-1.55773 -0.20925,-0.54763 -0.51021,-1.14462 -0.81757,-1.7367 -0.30736,-0.59208 -0.62171,-1.17839 -0.85378,-1.67573 -0.23207,-0.49734 -0.36314,-0.936 -0.36466,-1.05625 -0.002,-0.12025 0.11811,-0.56205 0.33753,-1.0651 0.21942,-0.50305 0.51961,-1.09725 0.8119,-1.69691 0.29229,-0.59966 0.57748,-1.20408 0.77281,-1.75683 0.19533,-0.55274 0.3487,-1.04619 0.17347,-1.56316 -0.17523,-0.51697 -0.59708,-0.81514 -1.08826,-1.13519 -0.49117,-0.32005 -1.08498,-0.62563 -1.68165,-0.92397 -0.59668,-0.29834 -1.19583,-0.58827 -1.67591,-0.85422 -0.48008,-0.26595 -0.84353,-0.54404 -0.91544,-0.64043 -0.0719,-0.0964 -0.23518,-0.52381 -0.35335,-1.05976 -0.11818,-0.53595 -0.2251,-1.19308 -0.34111,-1.85002 -0.116,-0.65694 -0.24012,-1.31353 -0.40699,-1.87553 -0.16687,-0.56199 -0.33241,-1.05102 -0.77805,-1.36626 -0.44563,-0.31524 -0.96253,-0.30887 -1.54801,-0.27909 -0.58549,0.0298 -1.24592,0.13182 -1.904,0.24118 -0.65808,0.10936 -1.31241,0.22699 -1.85712,0.29401 -0.54472,0.067 -1.00267,0.0556 -1.1175,0.0199 -0.11484,-0.0357 -0.49787,-0.2859 -0.9085,-0.65003 -0.41063,-0.36413 -0.8831,-0.83289 -1.36309,-1.29618 -0.47999,-0.46329 -0.96647,-0.92107 -1.4318,-1.27765 -0.46533,-0.35658 -0.88697,-0.65499 -1.43279,-0.64809 z m 0.0127,0.99954 c 0.0522,-6.7e-4 0.40912,0.13384 0.81149,0.44218 0.40237,0.30833 0.87269,0.74689 1.3458,1.20354 0.47311,0.45665 0.95023,0.93185 1.39383,1.32522 0.44362,0.39338 0.81905,0.71437 1.27534,0.85628 0.45628,0.1419 0.9477,0.0902 1.53616,0.0178 0.58847,-0.0724 1.25115,-0.19231 1.89979,-0.3001 0.64865,-0.10779 1.28472,-0.2029 1.79099,-0.22865 0.50627,-0.0257 0.87632,0.0662 0.91896,0.0964 0.0427,0.0302 0.25306,0.34919 0.39736,0.83514 0.14429,0.48596 0.26673,1.11674 0.38107,1.76427 0.11434,0.64752 0.22135,1.31225 0.34902,1.89125 0.12766,0.57899 0.24219,1.05991 0.52793,1.44291 0.28573,0.383 0.71402,0.62981 1.23266,0.91713 0.51864,0.28731 1.12546,0.5796 1.71359,0.87366 0.58813,0.29406 1.15823,0.59093 1.58295,0.86767 0.42472,0.27675 0.67009,0.56919 0.68686,0.61866 0.0168,0.0495 -5e-4,0.43027 -0.16941,0.90823 -0.1689,0.47796 -0.44115,1.06102 -0.72925,1.65209 -0.2881,0.59107 -0.59169,1.19156 -0.82873,1.73502 -0.23704,0.54345 -0.42685,1.00006 -0.42081,1.47786 0.006,0.4778 0.20697,0.9288 0.45768,1.46609 0.25071,0.53729 0.57009,1.1305 0.87305,1.71409 0.30296,0.58359 0.58938,1.15881 0.77032,1.63235 0.18094,0.47353 0.20787,0.85433 0.19236,0.90421 -0.0155,0.0499 -0.25361,0.34837 -0.67119,0.63577 -0.41759,0.2874 -0.98,0.59859 -1.5605,0.90744 -0.5805,0.30884 -1.1793,0.61651 -1.69051,0.91685 -0.5112,0.30034 -0.93327,0.558 -1.20923,0.9481 -0.27595,0.3901 -0.37862,0.8733 -0.4916,1.45534 -0.11298,0.58204 -0.2031,1.24945 -0.30103,1.89969 -0.0979,0.6502 -0.20393,1.28421 -0.33588,1.77366 -0.13196,0.48945 -0.33443,0.8135 -0.3763,0.84472 -0.0419,0.0312 -0.40991,0.13226 -0.91667,0.11929 -0.50676,-0.0129 -1.1447,-0.0913 -1.79586,-0.18264 -0.65117,-0.0914 -1.31655,-0.19528 -1.90666,-0.25278 -0.59011,-0.0575 -1.08262,-0.0966 -1.53517,0.0568 -0.45256,0.15338 -0.81992,0.48412 -1.25344,0.88858 -0.43351,0.40447 -0.89822,0.89084 -1.35963,1.35932 -0.46141,0.46845 -0.92044,0.91928 -1.31489,1.2377 -0.39444,0.31841 -0.74794,0.46146 -0.80017,0.46213 -0.0522,6.7e-4 -0.40976,-0.1338 -0.81213,-0.44213 -0.40237,-0.30832 -0.87269,-0.7469 -1.3458,-1.20355 -0.47311,-0.45665 -0.95017,-0.93119 -1.39378,-1.32459 -0.44362,-0.39337 -0.8191,-0.71499 -1.27539,-0.85691 -0.45628,-0.14188 -0.94765,-0.0896 -1.53611,-0.0172 -0.58846,0.0725 -1.25114,0.19231 -1.8998,0.30009 -0.64864,0.1078 -1.28407,0.20284 -1.79034,0.22859 -0.50627,0.0259 -0.87696,-0.0661 -0.9196,-0.0963 -0.0426,-0.0302 -0.25307,-0.34918 -0.39736,-0.83512 -0.14429,-0.48597 -0.26614,-1.11744 -0.38049,-1.76496 -0.11434,-0.64753 -0.22193,-1.31157 -0.34959,-1.89056 -0.12767,-0.579 -0.2422,-1.05991 -0.52794,-1.44291 -0.28573,-0.383 -0.71402,-0.62982 -1.23266,-0.91713 -0.51864,-0.28731 -1.12483,-0.57965 -1.71295,-0.87372 -0.58813,-0.29406 -1.15887,-0.59087 -1.58359,-0.86761 -0.42472,-0.27675 -0.67009,-0.56919 -0.68686,-0.61867 -0.0168,-0.0495 4.5e-4,-0.4309 0.16936,-0.90886 0.1689,-0.47796 0.4412,-1.06038 0.7293,-1.65145 0.2881,-0.59107 0.59169,-1.19156 0.82873,-1.73502 0.23704,-0.54346 0.42685,-1.00006 0.42081,-1.47786 -0.006,-0.4778 -0.20702,-0.92944 -0.45773,-1.46673 -0.25071,-0.53729 -0.57004,-1.12986 -0.873,-1.71345 -0.30296,-0.5836 -0.58943,-1.15945 -0.77037,-1.63299 -0.18094,-0.47354 -0.20787,-0.85433 -0.19236,-0.90421 0.0155,-0.0499 0.25366,-0.34773 0.67124,-0.63513 0.41759,-0.2874 0.97994,-0.59924 1.56044,-0.90808 0.5805,-0.30884 1.17936,-0.61587 1.69057,-0.91621 0.5112,-0.30034 0.93327,-0.558 1.20923,-0.9481 0.27595,-0.3901 0.37856,-0.87394 0.49155,-1.45598 0.11298,-0.58204 0.20315,-1.24883 0.30108,-1.89904 0.0979,-0.65021 0.20457,-1.28429 0.33653,-1.77374 0.13195,-0.48945 0.33378,-0.81343 0.37565,-0.84467 0.0419,-0.0312 0.40991,-0.13223 0.91667,-0.11929 0.50676,0.0129 1.14469,0.0913 1.79586,0.18265 0.65117,0.0914 1.31649,0.19464 1.9066,0.25214 0.59011,0.0575 1.08268,0.0972 1.53523,-0.0562 0.45256,-0.15339 0.81986,-0.48476 1.25338,-0.88923 0.43352,-0.40447 0.89823,-0.89083 1.35964,-1.3593 0.46141,-0.46847 0.92049,-0.91866 1.31494,-1.23707 0.39444,-0.31841 0.74853,-0.46216 0.80076,-0.46282 z"
             id="path6120" />
          <path
             style="color:#000000;fill:#ffffff;stroke:none;stroke-width:0.379535;stroke-linecap:round;stroke-linejoin:round;-inkscape-stroke:none;paint-order:stroke markers fill"
             d="m -202.80802,218.06373 c -0.592,0.007 -1.06502,0.35129 -1.58686,0.77255 -0.52184,0.42125 -1.06875,0.96254 -1.60864,1.51069 -0.53989,0.54815 -1.0715,1.10301 -1.53725,1.53754 -0.46575,0.43454 -0.90014,0.74027 -1.05777,0.7937 -0.15763,0.0534 -0.68816,0.0747 -1.32214,0.0129 -0.63398,-0.0618 -1.39405,-0.17897 -2.15598,-0.28586 -0.76192,-0.10688 -1.52482,-0.20377 -2.19525,-0.22089 -0.67044,-0.0171 -1.25559,-0.003 -1.73012,0.35146 -0.47454,0.35403 -0.65514,0.91059 -0.82971,1.55813 -0.17457,0.64753 -0.29828,1.40638 -0.41287,2.16718 -0.11459,0.7608 -0.2187,1.52249 -0.34009,2.1478 -0.12138,0.6253 -0.29369,1.12793 -0.38981,1.26381 -0.0961,0.13588 -0.51274,0.46542 -1.06195,0.78809 -0.54921,0.32266 -1.23255,0.67445 -1.91178,1.03582 -0.67924,0.36137 -1.35387,0.73103 -1.90632,1.11125 -0.55246,0.38022 -1.01715,0.73634 -1.19297,1.30168 -0.17581,0.56533 0.006,1.12132 0.24507,1.7478 0.23938,0.62648 0.58492,1.31348 0.9394,1.99634 0.35449,0.68285 0.71807,1.36085 0.98742,1.93808 0.26935,0.57723 0.42592,1.08434 0.42802,1.25077 0.002,0.16643 -0.14204,0.67754 -0.39671,1.2614 -0.25466,0.58386 -0.60066,1.27037 -0.93777,1.96198 -0.3371,0.6916 -0.66568,1.38737 -0.88913,2.0197 -0.22346,0.63233 -0.39002,1.19324 -0.19996,1.75395 0.19006,0.56071 0.66362,0.90452 1.22551,1.27064 0.5619,0.36613 1.24544,0.71876 1.9336,1.06284 0.68816,0.34407 1.3806,0.67869 1.93779,0.98736 0.5572,0.30868 0.98207,0.62695 1.0816,0.76035 0.0995,0.13341 0.28366,0.63156 0.42081,1.25359 0.13716,0.62204 0.26098,1.38096 0.39477,2.13862 0.13379,0.75766 0.27674,1.5135 0.46763,2.15641 0.1909,0.64291 0.38548,1.19461 0.86882,1.53655 0.48334,0.3419 1.06848,0.34166 1.73828,0.30761 0.66977,-0.0342 1.43023,-0.1509 2.18922,-0.27695 0.75898,-0.12613 1.5154,-0.26194 2.14761,-0.33974 0.63219,-0.0779 1.16332,-0.0699 1.32226,-0.0204 0.15894,0.0494 0.60106,0.34401 1.07765,0.76662 0.47659,0.42262 1.02236,0.96334 1.57594,1.49767 0.55358,0.53434 1.11344,1.06168 1.64576,1.46957 0.53234,0.40794 1.01468,0.74025 1.60667,0.73274 0.592,-0.007 1.06502,-0.35129 1.58686,-0.77253 0.52184,-0.42127 1.06875,-0.96255 1.60864,-1.51071 0.53989,-0.54813 1.07145,-1.10376 1.5372,-1.53827 0.46574,-0.43456 0.90019,-0.73953 1.05783,-0.79295 0.15763,-0.0535 0.6881,-0.0753 1.32207,-0.0136 0.63398,0.0618 1.39406,0.17898 2.15598,0.28586 0.76192,0.10688 1.52488,0.2045 2.19532,0.22161 0.67043,0.0171 1.25558,0.003 1.73012,-0.35145 0.47453,-0.35405 0.65513,-0.9106 0.82971,-1.55812 0.17457,-0.64756 0.29896,-1.40718 0.41354,-2.16797 0.11458,-0.76083 0.21796,-1.52245 0.33935,-2.14776 0.12138,-0.62531 0.29369,-1.12793 0.38981,-1.26381 0.0961,-0.13588 0.5128,-0.46468 1.06201,-0.78735 0.54921,-0.32266 1.23255,-0.67445 1.91179,-1.03583 0.67923,-0.36137 1.3538,-0.73176 1.90626,-1.11198 0.55245,-0.38022 1.0172,-0.7356 1.19302,-1.30094 0.17581,-0.56533 -0.005,-1.12139 -0.24433,-1.74787 -0.23938,-0.62647 -0.58571,-1.31415 -0.9402,-1.99701 -0.35449,-0.68285 -0.71801,-1.36011 -0.98736,-1.93734 -0.26934,-0.57723 -0.42518,-1.0844 -0.42728,-1.25083 -0.002,-0.16643 0.14125,-0.67822 0.39591,-1.26208 0.25466,-0.58386 0.60073,-1.26964 0.93783,-1.96124 0.33711,-0.6916 0.66562,-1.38811 0.88908,-2.02044 0.22345,-0.63233 0.39007,-1.19251 0.20001,-1.75322 -0.19005,-0.56071 -0.66361,-0.90451 -1.22551,-1.27064 -0.56189,-0.36612 -1.24544,-0.71875 -1.9336,-1.06283 -0.68815,-0.34408 -1.38059,-0.6787 -1.93779,-0.98737 -0.55719,-0.30867 -0.98213,-0.62768 -1.08166,-0.76109 -0.0995,-0.1334 -0.28359,-0.63081 -0.42075,-1.25285 -0.13716,-0.62204 -0.26024,-1.38101 -0.39403,-2.13867 -0.13379,-0.75767 -0.27748,-1.51344 -0.46837,-2.15636 -0.1909,-0.64291 -0.38548,-1.19462 -0.86882,-1.53653 -0.48334,-0.34191 -1.06848,-0.34168 -1.73827,-0.30761 -0.66979,0.0341 -1.43031,0.1501 -2.18928,0.27621 -0.75898,0.12612 -1.51534,0.26267 -2.14755,0.34046 -0.63221,0.0778 -1.16334,0.0698 -1.32227,0.0204 -0.15893,-0.0494 -0.60106,-0.344 -1.07765,-0.76662 -0.47659,-0.42262 -1.02241,-0.96407 -1.57599,-1.49839 -0.55359,-0.53432 -1.11344,-1.06166 -1.64578,-1.46958 -0.53232,-0.40792 -1.01461,-0.73949 -1.6066,-0.732 z m 0.0131,0.99931 c 0.0984,-0.001 0.51562,0.1669 0.98499,0.52658 0.46937,0.35967 1.01339,0.86788 1.56009,1.39556 0.54671,0.52769 1.09705,1.07524 1.60662,1.52711 0.50957,0.45187 0.94384,0.81735 1.44423,0.97297 0.50038,0.15561 1.06518,0.10047 1.74114,0.0173 0.67596,-0.0832 1.43993,-0.22159 2.18948,-0.34614 0.74954,-0.12456 1.48586,-0.23465 2.07643,-0.26469 0.59057,-0.03 1.02927,0.0682 1.10962,0.12508 0.0804,0.0568 0.31978,0.43795 0.4881,1.00483 0.16832,0.56688 0.30933,1.29801 0.44146,2.04626 0.13213,0.74825 0.25595,1.51454 0.4026,2.17962 0.14665,0.66508 0.28327,1.21629 0.59662,1.6363 0.31335,0.42001 0.80242,0.70697 1.39817,1.037 0.59576,0.33004 1.29554,0.66755 1.97515,1.00735 0.67961,0.33981 1.33903,0.68346 1.83447,1.00629 0.49545,0.32282 0.79282,0.66005 0.82441,0.75326 0.0316,0.0932 0.001,0.54228 -0.1958,1.09982 -0.19703,0.55755 -0.51204,1.23191 -0.84496,1.91492 -0.33291,0.68301 -0.68319,1.37561 -0.95547,1.99988 -0.27229,0.62426 -0.48611,1.15034 -0.47949,1.67432 0.007,0.52398 0.23333,1.04392 0.52132,1.6611 0.28798,0.61718 0.656,1.30085 1.00609,1.97522 0.35008,0.67437 0.6819,1.34067 0.89296,1.89305 0.21107,0.55238 0.25321,1.00029 0.22399,1.09427 -0.0292,0.094 -0.31787,0.43911 -0.80499,0.77436 -0.48711,0.33526 -1.13844,0.69579 -1.80924,1.05268 -0.6708,0.35688 -1.36159,0.71098 -1.9488,1.05598 -0.58722,0.345 -1.06907,0.64537 -1.37169,1.07317 -0.30263,0.42781 -0.4246,0.98142 -0.55438,1.65 -0.12978,0.66859 -0.23386,1.43867 -0.34703,2.19001 -0.11316,0.75138 -0.23611,1.48503 -0.39004,2.05598 -0.15392,0.57096 -0.38332,0.95802 -0.46221,1.01688 -0.0789,0.0589 -0.51561,0.1687 -1.10675,0.15362 -0.59115,-0.0151 -1.32979,-0.10681 -2.08224,-0.21234 -0.75246,-0.10557 -1.51943,-0.2246 -2.19728,-0.29065 -0.67786,-0.066 -1.24432,-0.10673 -1.74062,0.0615 -0.49628,0.16825 -0.92061,0.54475 -1.41859,1.00938 -0.49798,0.46458 -1.03439,1.02545 -1.56757,1.56681 -0.53319,0.54133 -1.06404,1.06312 -1.52417,1.43457 -0.46013,0.37141 -0.87373,0.5496 -0.97215,0.55085 -0.0984,10e-4 -0.51556,-0.16616 -0.98493,-0.52585 -0.46937,-0.35965 -1.01338,-0.86785 -1.56009,-1.39555 -0.5467,-0.5277 -1.09705,-1.07524 -1.60662,-1.52709 -0.50957,-0.45189 -0.94384,-0.81737 -1.44422,-0.97298 -0.50039,-0.1556 -1.06518,-0.10045 -1.74115,-0.0173 -0.67597,0.0831 -1.43993,0.22157 -2.18947,0.34616 -0.74955,0.12456 -1.48586,0.23465 -2.07643,0.26469 -0.59058,0.03 -1.02934,-0.069 -1.10969,-0.12585 -0.0803,-0.0568 -0.31978,-0.43792 -0.4881,-1.00481 -0.16832,-0.56689 -0.30926,-1.29727 -0.44139,-2.04552 -0.13213,-0.74825 -0.25596,-1.51454 -0.40261,-2.17962 -0.14665,-0.66509 -0.28253,-1.21635 -0.59588,-1.63637 -0.31335,-0.42001 -0.80322,-0.70764 -1.39897,-1.03768 -0.59576,-0.33003 -1.29474,-0.66686 -1.97435,-1.00667 -0.6796,-0.3398 -1.33977,-0.6834 -1.83521,-1.00622 -0.49544,-0.32283 -0.79287,-0.66079 -0.82447,-0.75401 -0.0316,-0.0932 -0.001,-0.54153 0.19586,-1.09908 0.19703,-0.55754 0.51204,-1.2319 0.84496,-1.91491 0.33291,-0.68301 0.68313,-1.37635 0.95542,-2.00062 0.27228,-0.62426 0.48617,-1.1496 0.47954,-1.67358 -0.007,-0.52399 -0.23339,-1.04466 -0.52137,-1.66184 -0.28799,-0.61718 -0.65601,-1.30085 -1.0061,-1.97522 -0.35008,-0.67437 -0.68183,-1.33993 -0.8929,-1.89231 -0.21107,-0.55239 -0.25327,-1.00103 -0.22404,-1.09501 0.0292,-0.094 0.31786,-0.43911 0.80498,-0.77437 0.48712,-0.33525 1.13851,-0.69505 1.8093,-1.05193 0.6708,-0.35688 1.36153,-0.71173 1.94874,-1.05672 0.58722,-0.345 1.06913,-0.64463 1.37176,-1.07244 0.30262,-0.4278 0.42453,-0.98215 0.55431,-1.65074 0.12979,-0.66858 0.23466,-1.43799 0.34782,-2.18934 0.11317,-0.75135 0.23612,-1.48501 0.39005,-2.05597 0.15393,-0.57094 0.38259,-0.95797 0.46147,-1.01682 0.0789,-0.0589 0.51561,-0.1687 1.10675,-0.1536 0.59115,0.0151 1.32973,0.10604 2.08219,0.2116 0.75245,0.10556 1.51949,0.22533 2.19734,0.29138 0.67785,0.066 1.24432,0.10672 1.74061,-0.0615 0.49628,-0.16822 0.92062,-0.54474 1.41859,-1.00935 0.49799,-0.46461 1.03507,-1.02628 1.56826,-1.56762 0.53318,-0.54134 1.0641,-1.06239 1.52422,-1.43382 0.46013,-0.37144 0.87294,-0.5503 0.97135,-0.55155 z"
             id="path6406" />
          <path
             style="color:#000000;fill:#ffffff;stroke:none;stroke-linecap:round;stroke-linejoin:round;-inkscape-stroke:none;paint-order:stroke markers fill"
             d="m -207.74637,231.64801 c -1.2657,0 -2.30274,1.03704 -2.30274,2.30273 0,1.2657 1.03704,2.30274 2.30274,2.30274 1.26569,0 2.30273,-1.03704 2.30273,-2.30274 0,-1.26569 -1.03704,-2.30273 -2.30273,-2.30273 z m 0,1 c 0.72525,0 1.30273,0.57748 1.30273,1.30273 0,0.72526 -0.57748,1.30274 -1.30273,1.30274 -0.72526,0 -1.30274,-0.57748 -1.30274,-1.30274 0,-0.72525 0.57748,-1.30273 1.30274,-1.30273 z"
             id="path6502" />
          <path
             style="color:#000000;fill:#ffffff;stroke:none;stroke-linecap:round;stroke-linejoin:round;-inkscape-stroke:none;paint-order:stroke markers fill"
             d="m -207.74637,229.29449 c -2.56588,0 -4.65625,2.09038 -4.65625,4.65625 0,2.56588 2.09037,4.65625 4.65625,4.65625 2.56588,0 4.65625,-2.09037 4.65625,-4.65625 0,-2.56587 -2.09037,-4.65625 -4.65625,-4.65625 z m 0,1.00586 c 2.02274,0 3.65234,1.62766 3.65234,3.65039 0,2.02274 -1.6296,3.65235 -3.65234,3.65235 -2.02274,0 -3.65234,-1.62961 -3.65234,-3.65235 0,-2.02273 1.6296,-3.65039 3.65234,-3.65039 z"
             id="circle6584" />
          <path
             style="color:#000000;fill:#ffffff;stroke:none;stroke-linecap:round;stroke-linejoin:round;-inkscape-stroke:none;paint-order:stroke markers fill"
             d="m -197.39286,245.05231 c -1.26569,0 -2.30273,1.03704 -2.30273,2.30273 0,1.2657 1.03704,2.30078 2.30273,2.30078 1.2657,0 2.30274,-1.03508 2.30274,-2.30078 0,-1.26569 -1.03704,-2.30273 -2.30274,-2.30273 z m 0,1 c 0.72526,0 1.30274,0.57748 1.30274,1.30273 0,0.72526 -0.57748,1.30078 -1.30274,1.30078 -0.72525,0 -1.30273,-0.57552 -1.30273,-1.30078 0,-0.72525 0.57748,-1.30273 1.30273,-1.30273 z"
             id="circle6586" />
          <path
             style="color:#000000;fill:#ffffff;stroke:none;stroke-linecap:round;stroke-linejoin:round;-inkscape-stroke:none;paint-order:stroke markers fill"
             d="m -197.39286,242.69684 c -2.56587,0 -4.6582,2.09232 -4.6582,4.6582 0,2.56588 2.09233,4.65625 4.6582,4.65625 2.56588,0 4.65625,-2.09037 4.65625,-4.65625 0,-2.56588 -2.09037,-4.6582 -4.65625,-4.6582 z m 0,1.00586 c 2.02274,0 3.6504,1.6296 3.6504,3.65234 0,2.02274 -1.62766,3.65039 -3.6504,3.65039 -2.02273,0 -3.65234,-1.62765 -3.65234,-3.65039 0,-2.02274 1.62961,-3.65234 3.65234,-3.65234 z"
             id="circle6588" />
          <path
             style="color:#000000;fill:#ffffff;stroke:none;stroke-linecap:round;stroke-linejoin:round;-inkscape-stroke:none;paint-order:stroke markers fill"
             d="m -192.85895,231.09994 c -0.70044,-0.69994 -1.85131,-0.70132 -2.55174,-0.001 l -16.58569,16.57376 c -0.70043,0.69993 -0.69905,1.84997 10e-4,2.54991 0.70043,0.69993 1.84992,0.69993 2.55036,0 l 16.58568,-16.57376 c 0.70044,-0.69993 0.70044,-1.8486 0,-2.54853 z m -0.72808,0.72756 c 0.30991,0.30969 0.30991,0.78372 0,1.09341 l -16.58569,16.57376 c -0.30991,0.30969 -0.78428,0.30969 -1.09419,10e-6 -0.30992,-0.3097 -0.3113,-0.78511 -0.001,-1.09481 l 16.58568,-16.57376 c 0.30991,-0.30968 0.78567,-0.3083 1.09559,0.001 z"
             id="rect6796" />
        </g>
      </g>
    </g>
  </g>
</svg>
